It's 1954, and up-and-coming U.S. marshal Teddy Daniels is assigned to investigate the disappearance of a patient from Boston's Shutter Island Ashecliffe Hospital. He's been pushing for an assignment on the island for personal reasons, but before long he wonders whether he hasn't been brought there as part of a twisted plot by hospital doctors whose radical treatments range from unethical to illegal to downright sinister. Teddy's shrewd investigating skills soon provide a promising lead, but the hospital refuses him access to records he suspects would break the case wide open. As a hurricane cuts off communication with the mainland, more dangerous criminals "escape" in the confusion, and the puzzling, improbable clues multiply, Teddy begins to doubt everything - his memory, his partner, even his own sanity.
 
http://www.imdb.com/title/tt1130884/

Subtitles (srt) : Dutch, English.

Covers included.

De film speelt zich af in 1954. De U.S. Marshalls Chuck Aule (Mark Ruffalo) en zijn nieuwe partner Teddy Daniels (Leonardo DiCaprio) gaan op zoek naar een moordenares die ontsnapt is uit T.B.S.-kliniek 'Ashecliffe Hospital' voor langgestraften op Shutter Island, een eiland voor de kust van Massachusetts. Aangenomen wordt dat ze zich daar nog verborgen houdt. Een web van intrige en misleiding zorgt er al snel voor de nodige problemen. Zo krijgt Daniels van de plaatselijke doctoren geen toegang tot de archieven van het hospitaal die hem de broodnodige informatie zouden kunnen verschaffen. Een plotseling opstekende orkaan verbreekt de verbinding met het vasteland waardoor ze nu op zichzelf zijn aangewezen. Diverse langgestraften maken van de verwarring gebruik om uit de kliniek te ontsnappen
 
http://www.moviemeter.nl/film/57010

Ondertitels (srt) : Engels, Nederlands.

Hoesjes bijgevoegd.

General
Complete name                    : Shutter Island-AC3-XviD-BDRip[Eng]2010 2Lions-TeamShutter Island-AC3-XviD-BDRip[Eng]2010.avi
Format                           : AVI
Format/Info                      : Audio Video Interleave
File size                        : 1.36 GiB
Duration                         : 2h 18mn
Overall bit rate                 : 1 411 Kbps
Writing application              : VirtualDubMod 1.5.4.1 (build 2178/release)
Writing library                  : VirtualDubMod build 2178/release

Video
ID                               : 0
Format                           : MPEG-4 Visual
Format profile                   : Simple@L3
Format settings, BVOP            : Yes
Format settings, QPel            : No
Format settings, GMC             : No warppoints
Format settings, Matrix          : Default (MPEG)
Muxing mode                      : Packed bitstream
Codec ID                         : XVID
Codec ID/Hint                    : XviD
Duration                         : 2h 18mn
Bit rate                         : 954 Kbps
Width                            : 640 pixels
Height                           : 272 pixels
Display aspect ratio             : 2.35:1
Frame rate                       : 23.976 fps
Resolution                       : 24 bits
Colorimetry                      : 4:2:0
Scan type                        : Progressive
Bits/(Pixel*Frame)               : 0.229
Stream size                      : 944 MiB (68%)
Writing library                  : XviD 1.0.3 (UTC 2004-12-20)

Audio
ID                               : 1
Format                           : AC-3
Format/Info                      : Audio Coding 3
Codec ID                         : 2000
Duration                         : 2h 18mn
Bit rate mode                    : Constant
Bit rate                         : 448 Kbps
Channel(s)                       : 6 channels
Channel positions                : Front: L C R, Surround: L R, LFE
Sampling rate                    : 48.0 KHz
Stream size                      : 442 MiB (32%)
Alignment                        : Split accross interleaves
Interleave, duration             : 42 ms (1.00 video frame)
Interleave, preload duration     : 500 ms


Brought to you by 
2Lions Team

meer zien??
Kom dan eens kijken op ons forum 
                    
http://www.2lions.ons-forum.nl

2Lions the site to be for all your Dutch MOVIES and more

******************************************

DON T HIT AND RUN Niet gelijk afhaken als de FILM binnen is blijf seeden. 

Don`t quit after you finished the download, but keep seeding

There are fake torrents from uploaders who use our team name.
Those are not ours, or members from our team.
We 2Lions-Team are not responsible for the fake posts on our name

Wij 2Lions-Team zijn niet verantwoordelijk voor die zieke FAKE posten die op onze naam worden gedaan

Please check our site !!!

to the fakers , get a life !!!